<?xml version="1.0" encoding="utf-8"?>
<!-- Generator: Adobe Illustrator 16.0.0, SVG Export Plug-In . SVG Version: 6.00 Build 0)  -->
<!DOCTYPE svg PUBLIC "-//W3C//DTD SVG 1.1//EN" "http://www.w3.org/Graphics/SVG/1.1/DTD/svg11.dtd">
<svg version="1.1" id="Layer_1" xmlns="http://www.w3.org/2000/svg" xmlns:xlink="http://www.w3.org/1999/xlink" x="0px" y="0px"
	 width="960px" height="1080px" viewBox="0 0 960 1080" enable-background="new 0 0 960 1080" xml:space="preserve">
<g id="Group_43" transform="translate(-960)">
	
		<linearGradient id="Rectangle_8_1_" gradientUnits="userSpaceOnUse" x1="1134.771" y1="935.9219" x2="1135.3761" y2="936.5146" gradientTransform="matrix(-6.2477 763.8481 1158.927 9.4789 -1076343.625 -875046.625)">
		<stop  offset="0" style="stop-color:#D96E30;stop-opacity:0"/>
		<stop  offset="1" style="stop-color:#D96E30"/>
	</linearGradient>
	<path id="Rectangle_8" fill="url(#Rectangle_8_1_)" d="M1919.341,447.353l2.853,634.255l0,0l-962.207-7.869l0,0l0,0
		c2.865-350.253,388.116-631.058,860.483-627.194L1919.341,447.353C1923.781,447.389,1919.367,444.06,1919.341,447.353z"/>
	
		<linearGradient id="Rectangle_9_1_" gradientUnits="userSpaceOnUse" x1="1134.7715" y1="936.2871" x2="1135.38" y2="935.6911" gradientTransform="matrix(-6.2477 763.8481 1158.927 9.4789 -1076343.625 -875046.625)">
		<stop  offset="0" style="stop-color:#D96E30;stop-opacity:0"/>
		<stop  offset="1" style="stop-color:#D96E30"/>
	</linearGradient>
	<path id="Rectangle_9" fill="url(#Rectangle_9_1_)" d="M1922.193,1081.607L1922.193,1081.607L1922.193,1081.607L960,1080
		l-0.013-6.262l-1.319-628.659c0.027-3.292,10.106-5.501,14.546-5.465l98.872,0.808
		C1544.451,444.287,1925.058,731.355,1922.193,1081.607z"/>
</g>
</svg>
