<svg id="Home" xmlns="http://www.w3.org/2000/svg" width="24" height="24" viewBox="0 0 24 24">
  <g id="Home_1" data-name="Home 1">
    <path id="Vector" d="M4.783,2.966C7.45,1.028,8.784.059,10.306,0q.183-.007.367,0C12.2.059,13.529,1.028,16.2,2.966s4,2.906,4.524,4.337q.063.172.113.349c.417,1.466-.092,3.033-1.111,6.168L18,19.116a2.043,2.043,0,0,1-3.985-.631V15.736A1.917,1.917,0,0,0,12.1,13.82H8.88a1.917,1.917,0,0,0-1.917,1.917v2.749a2.043,2.043,0,0,1-3.985.631l-1.721-5.3C.238,10.685-.271,9.117.146,7.652Q.2,7.475.26,7.3C.783,5.872,2.117,4.9,4.783,2.966Z" transform="translate(1.51 2)" fill="none" stroke="#2d264b" stroke-width="1.5"/>
  </g>
</svg>
