<svg xmlns="http://www.w3.org/2000/svg" width="19.5" height="19.5" viewBox="0 0 19.5 19.5">
  <g id="Logout" transform="translate(0.75 0.75)">
    <g id="Login" transform="translate(-3 -3)">
      <path id="Vector" d="M8,1a4.978,4.978,0,0,1,3-1h1a12.56,12.56,0,0,1,1.782.062,5,5,0,0,1,4.156,4.156A12.561,12.561,0,0,1,18,6v6a12.56,12.56,0,0,1-.062,1.782,5,5,0,0,1-4.156,4.156A12.561,12.561,0,0,1,12,18H11a4.978,4.978,0,0,1-3-1M0,9H14m-4,4,1.763-1.4c1.406-1.115,2.109-1.672,2.217-2.351A1.592,1.592,0,0,0,14,9m0,0a1.592,1.592,0,0,0-.02-.251c-.108-.679-.811-1.237-2.217-2.351L10,5" transform="translate(3 3)" fill="none" stroke="#bf3415" stroke-linecap="round" stroke-width="1.5"/>
    </g>
  </g>
</svg>
