<svg xmlns="http://www.w3.org/2000/svg" width="19.5" height="21.5" viewBox="0 0 19.5 21.5">
  <g id="Password" transform="translate(0.75 0.75)">
    <g id="Lock_3" data-name="Lock 3" transform="translate(-3 -2)">
      <path id="Vector" d="M0,13A12.508,12.508,0,0,1,.245,9.455a5,5,0,0,1,3.21-3.21A3.786,3.786,0,0,1,4,6.114,20.323,20.323,0,0,1,7,6h4a20.323,20.323,0,0,1,3,.114,3.785,3.785,0,0,1,.545.131,5,5,0,0,1,3.21,3.21A12.508,12.508,0,0,1,18,13a12.508,12.508,0,0,1-.245,3.545,5,5,0,0,1-3.21,3.21A12.508,12.508,0,0,1,11,20H7a12.508,12.508,0,0,1-3.545-.245,5,5,0,0,1-3.21-3.21A12.508,12.508,0,0,1,0,13Z" transform="translate(3 2)" fill="none" stroke="#d96e30" stroke-width="1.5"/>
      <path id="Vector-2" data-name="Vector" d="M9,9a2,2,0,1,1-2,2A2,2,0,0,1,9,9Z" transform="translate(3 2)" fill="none" stroke="#d96e30" stroke-width="1.5"/>
      <path id="Vector-3" data-name="Vector" d="M9,13v4M4,6.114V5A5,5,0,0,1,14,5V6.114" transform="translate(3 2)" fill="none" stroke="#d96e30" stroke-width="1.5"/>
    </g>
  </g>
</svg>
